<?xml version="1.0" standalone="no"?>
<!DOCTYPE svg PUBLIC "-//W3C//DTD SVG 20010904//EN"
 "http://www.w3.org/TR/2001/REC-SVG-20010904/DTD/svg10.dtd">
<svg version="1.0" xmlns="http://www.w3.org/2000/svg"
 width="700.000000pt" height="700.000000pt" viewBox="0 0 700.000000 700.000000"
 preserveAspectRatio="xMidYMid meet">
<g transform="translate(0.000000,700.000000) scale(0.100000,-0.100000)"
fill="#000000" stroke="none">
<path d="M3285 6769 c-376 -25 -731 -110 -1080 -259 -419 -178 -822 -466
-1128 -805 -705 -781 -993 -1826 -787 -2855 127 -633 432 -1202 895 -1665 537
-539 1223 -864 1995 -946 141 -15 508 -15 650 0 765 83 1450 410 1990 951 525
526 846 1193 936 1945 22 188 22 542 0 730 -91 759 -411 1420 -946 1955 -465
466 -1053 776 -1701 899 -275 53 -544 69 -824 50z m-370 -762 c-441 -227 -929
-534 -1437 -904 -71 -51 -128 -89 -128 -85 0 14 165 215 250 305 356 376 841
644 1365 756 50 11 99 20 110 20 11 0 -61 -41 -160 -92z m1365 9 c227 -70 489
-196 699 -335 11 -7 -2 -17 -50 -41 -124 -63 -516 -284 -714 -403 -643 -387
-1160 -744 -1974 -1362 -45 -34 296 402 508 650 272 318 603 665 846 888 146
134 328 281 454 367 100 68 148 127 172 208 7 23 13 42 13 42 1 0 21 -6 46
-14z m1357 -976 c47 -65 125 -189 177 -281 l36 -67 -77 -48 c-318 -195 -1010
-693 -1723 -1239 -301 -231 -547 -420 -565 -434 -28 -23 -23 -16 166 214 616
752 1232 1424 1762 1923 l98 92 43 -52 c23 -29 60 -78 83 -108z m-3630 -402
c-392 -483 -830 -1119 -1050 -1527 -52 -97 -50 -100 -72 84 -19 166 -19 444 0
608 22 187 17 177 81 177 87 0 146 30 299 151 296 235 797 609 818 609 4 0
-30 -46 -76 -102z m1451 -675 c-505 -592 -1247 -1544 -1662 -2133 -76 -107
-141 -196 -146 -198 -9 -3 -142 143 -222 243 -57 72 -198 281 -198 294 0 8
186 178 425 388 479 419 1096 909 1640 1300 94 67 172 123 174 123 2 0 -3 -8
-11 -17z m2669 -379 c3 -115 3 -244 -1 -285 l-7 -74 -44 -18 c-25 -11 -84 -57
-141 -111 -360 -336 -828 -704 -1184 -931 l-75 -47 46 48 c531 567 1009 1142
1314 1581 67 96 70 100 78 74 5 -14 11 -121 14 -237z m-1538 -606 c-247 -278
-534 -581 -1184 -1248 -559 -574 -661 -681 -685 -718 l-15 -23 -90 31 c-101
36 -312 129 -365 161 l-35 22 29 21 c175 127 1025 769 1451 1096 847 651 950
729 954 730 1 0 -26 -32 -60 -72z m1065 -990 c-138 -194 -326 -397 -494 -531
-108 -87 -310 -221 -420 -281 -120 -64 -294 -137 -441 -185 -122 -39 -397
-101 -449 -101 -16 0 40 34 150 91 539 280 1119 638 1530 943 85 63 157 115
158 116 2 0 -13 -24 -34 -52z"/>
</g>
</svg>
